<svg width="21" height="18" viewBox="0 0 21 18" fill="none" xmlns="http://www.w3.org/2000/svg">
<path d="M11.9 0.75C7.35 0.75 3.67 4.45 3.67 9H0.919998L4.49 12.57L4.53 12.7L8.23 9H5.5C5.5 5.46 8.37 2.58 11.92 2.58C15.46 2.58 18.32 5.46 18.32 9C18.32 12.54 15.46 15.42 11.92 15.42C10.14 15.42 8.54 14.69 7.38 13.52L6.08 14.82C7.58 16.32 9.63 17.25 11.91 17.25C16.49 17.25 20.19 13.55 20.19 9C20.19 4.44 16.49 0.75 11.93 0.75H11.9ZM11 5.33V9.93L14.92 12.23L15.58 11.13L12.38 9.23V5.33H11Z" fill="#909090"/>
</svg>
